<svg width="20" height="20" viewBox="0 0 20 20" fill="none" xmlns="http://www.w3.org/2000/svg">
<path fill-rule="evenodd" clip-rule="evenodd" d="M3.32585 4.353C3.14382 4.1558 3.14993 3.85007 3.33969 3.66031L3.63202 3.36798C3.83283 3.16717 4.16036 3.17372 4.35298 3.38239L7.39823 6.68142L12 11.6667L14 13.8333L14.1538 14L15.6742 15.647C15.8562 15.8442 15.8501 16.1499 15.6603 16.3397L15.368 16.632C15.1672 16.8328 14.8396 16.8263 14.647 16.6176L12 13.75V15.9597C12 16.3789 11.515 16.612 11.1877 16.3501L7.13696 13.1096C7.0483 13.0386 6.93815 13 6.82461 13H3.5C3.22386 13 3 12.7761 3 12.5V7.5C3 7.22386 3.22386 7 3.5 7H5.76923L3.32585 4.353ZM8.50442 5.79646L12 9.58333V4.04031C12 3.62106 11.515 3.38797 11.1877 3.64988L8.50442 5.79646ZM14 11.75L15.8965 13.8046C15.9614 13.7203 16 13.6146 16 13.5V6.5C16 6.22386 15.7761 6 15.5 6H14.5C14.2239 6 14 6.22386 14 6.5V11.75Z" fill="white"/>
</svg>
